<svg width="87" height="70" viewBox="0 0 87 70" fill="none" xmlns="http://www.w3.org/2000/svg">
<path d="M1 39.9318C3.54974 40.8186 10.8442 41.7609 19.6242 38.4352C22.4511 37.9363 29.8675 38.0361 36.9181 42.4261L45.0661 48.0799C46.5627 49.0776 50.4206 50.807 53.8794 49.7428C58.2028 48.4125 62.6926 50.9068 62.1937 53.5674C61.6949 56.228 60.032 57.8909 55.2097 58.7223C51.3518 59.3874 37.7495 55.6737 31.4306 53.7337" stroke="white" stroke-width="2"/>
<path d="M2.66284 63.7104C4.15943 62.8236 8.88199 61.3159 15.7995 62.3801C22.7171 63.4444 33.8694 66.5927 38.5809 68.0339C43.5141 68.9208 56.0078 69.9961 66.5172 67.2025C77.0265 64.4088 83.4231 57.3915 85.3077 54.232C85.9174 52.0703 85.5737 47.8466 79.3213 48.2457L61.6949 55.2073" stroke="white" stroke-width="2"/>
<circle cx="61.1961" cy="23.6128" r="22.6128" stroke="white" stroke-width="2"/>
<circle cx="61.196" cy="23.6127" r="13.6333" stroke="white" stroke-width="2"/>
<path d="M63.118 25.9408C63.118 25.4457 62.9431 25.0286 62.5932 24.6895C62.2488 24.3504 61.6648 24.0437 60.8414 23.7692C59.695 23.4193 58.8581 22.9646 58.3306 22.4048C57.8086 21.8397 57.5475 21.1239 57.5475 20.2574C57.5475 19.3747 57.8032 18.6508 58.3145 18.0857C58.8312 17.5206 59.5389 17.1842 60.4377 17.0766V15.3086H61.6406V17.0847C62.5448 17.2084 63.2471 17.5879 63.7477 18.223C64.2536 18.858 64.5065 19.7273 64.5065 20.8306H63.0211C63.0211 20.0717 62.8408 19.4689 62.4802 19.0222C62.1196 18.5755 61.6325 18.3521 61.019 18.3521C60.3785 18.3521 59.8887 18.519 59.5497 18.8527C59.2106 19.181 59.0411 19.6411 59.0411 20.2332C59.0411 20.7821 59.2187 21.2208 59.5739 21.5491C59.9345 21.872 60.5238 22.168 61.3419 22.4371C62.1653 22.7008 62.8058 22.9942 63.2633 23.3171C63.7261 23.6346 64.0652 24.006 64.2805 24.4312C64.5012 24.8564 64.6115 25.3542 64.6115 25.9247C64.6115 26.8343 64.337 27.5662 63.788 28.1206C63.2445 28.6749 62.4802 29.0032 61.4953 29.1055V30.6475H60.3005V29.1055C59.2994 29.014 58.5136 28.6588 57.9431 28.0399C57.378 27.4155 57.0954 26.5706 57.0954 25.5049H58.589C58.589 26.253 58.7854 26.8289 59.1783 27.2325C59.5712 27.6362 60.1282 27.838 60.8494 27.838C61.5545 27.838 62.1088 27.6685 62.5125 27.3294C62.9161 26.9904 63.118 26.5275 63.118 25.9408Z" fill="white"/>
</svg>
